<svg xmlns="http://www.w3.org/2000/svg" viewBox="0 0 405.37 194.24"><defs><style>.cls-1,.cls-2{fill:#231916;}.cls-1{fill-rule:evenodd;}</style></defs><g id="Layer_2" data-name="Layer 2"><g id="_" data-name="ͼ"><path class="cls-1" d="M46.45,82S39,87.09,11.57,87.22l0-6C37.18,81.16,43.15,77,43.16,77Z"/><rect class="cls-2" x="5.69" y="89.64" width="43.58" height="5.97"/><rect class="cls-2" x="26.41" y="83.3" width="5.97" height="33.75"/><path class="cls-1" d="M20.23,91.81S24.67,106.34,4,124.91l-4-4.43c17.88-16.06,14.5-27,14.49-27Z"/><path class="cls-1" d="M44.28,93.44s-3.39,11,14.49,27l-4,4.43c-20.67-18.57-16.25-33.06-16.24-33.1Z"/><polygon class="cls-1" points="8.58 149.13 8.58 120.56 47.74 120.76 47.75 159.75 41.8 159.75 41.79 126.68 14.55 126.54 14.55 149.13 8.58 149.13"/><rect class="cls-2" x="11.56" y="129.45" width="23.26" height="5.97"/><rect class="cls-2" x="20.29" y="140.87" width="24.48" height="5.97"/><path class="cls-1" d="M375.89,83.5v38c.17,2.38.48,20.43-26.35,36.79l-3.1-5.09C371.92,137.69,370,121.93,370,121.89l0-.22V83.5Z"/><path class="cls-1" d="M383.5,130.36s4.41,13.75,21.87,22.76l-2.73,5.29c-19.62-10.12-24.77-26.14-24.78-26.18Z"/><path class="cls-1" d="M314.23,90.66c-7.51.14-43.73,0-43.83,0v-6c.1,0,36.25.14,43.73,0Z"/><rect class="cls-2" x="272.53" y="96.46" width="45.06" height="5.97"/><polygon class="cls-1" points="267.02 103.63 320.57 103.63 320.57 127.07 269.53 127.07 269.74 112.37 311.1 112.37 311.1 118.34 275.6 118.34 275.56 121.09 314.6 121.09 314.6 109.6 267.02 109.6 267.02 103.63"/><rect class="cls-2" x="277.03" y="128.55" width="36.05" height="5.97"/><rect class="cls-2" x="261.77" y="151.22" width="68.84" height="5.97"/><rect class="cls-2" x="292.07" y="87.75" width="5.97" height="66.45"/><path class="cls-1" d="M322.81,90.31a2.63,2.63,0,1,0-2.68-2.63A2.67,2.67,0,0,0,322.81,90.31Z"/><path class="cls-1" d="M322.81,82.07a5.68,5.68,0,0,1,4,1.62,5.58,5.58,0,0,1,0,8,5.67,5.67,0,0,1-8,0,5.53,5.53,0,0,1,0-8,5.69,5.69,0,0,1,4-1.62Zm.21,5.48-.12.13h-.09v-.07h0v0l.16-.17-.16-.08v.25h0l-.17-.17a.41.41,0,0,1,0,.12l.13.13.08-.08h0l-.07.07h.07v.08h0l-.07-.08h0l.08.08-.17.18h0l.17.08v-.25L323,88v0l-.16-.17.08-.08h.19a.69.69,0,0,1-.07-.13Zm-.21.22Zm-.09-.09h-.18l.06.13Z"/><path class="cls-1" d="M82.72,100.44s3.83,3.5,7.93,4.31l2.41.48v32.93l-.07.33s-2.48,12.34-10.08,20.41l-4.34-4.08c5.79-6.15,8.1-15.37,8.52-17.19v-27.7a28,28,0,0,1-8.33-5.06Z"/><rect class="cls-2" x="102.68" y="82.4" width="5.97" height="16.04"/><path class="cls-1" d="M132.32,82.4V98.22c.25,1.39,1.87,9.3,8.14,14.45l-3.78,4.6c-8.69-7.14-10.29-18.35-10.29-18.38l0-.24V82.4Z"/><rect class="cls-2" x="98.73" y="85.17" width="38.49" height="5.97"/><rect class="cls-2" x="96.52" y="95.7" width="42.44" height="5.97"/><path class="cls-1" d="M102.68,117.24v-9.71h30.89v18.26l-24.63.15v20.31c4.37,1.89,15.78,6.56,21.62,6.5l25.53-.27,0,6-25.53.27c-8.67.09-25.83-7.77-25.88-7.79l-1.76-.8V120l24.63-.15V113.5H108.65v3.74Z"/><path class="cls-1" d="M86.16,92.22a3.83,3.83,0,1,0-3.91-3.82A3.87,3.87,0,0,0,86.16,92.22Z"/><path class="cls-1" d="M86.16,81.59a6.87,6.87,0,0,1,4.84,2,6.72,6.72,0,0,1,0,9.68,6.93,6.93,0,0,1-9.68,0,6.74,6.74,0,0,1,0-9.68,6.91,6.91,0,0,1,4.84-2Zm.69,6.24a1,1,0,0,0-.69-.27,1,1,0,0,0-.69.27.8.8,0,0,0-.23.57.82.82,0,0,0,.23.57,1,1,0,0,0,.69.27,1,1,0,0,0,.69-.27.78.78,0,0,0,.24-.57A.77.77,0,0,0,86.85,87.83Z"/><rect class="cls-2" x="52.18" width="9.35" height="68.16" rx="0.81"/><rect class="cls-2" x="63.96" width="12.41" height="68.16" rx="0.63"/><rect class="cls-2" x="78.79" width="12.41" height="68.16" rx="0.67"/><rect class="cls-2" x="18.54" y="29.49" width="31.2" height="9.35"/><rect class="cls-2" x="93.63" y="27.56" width="6.07" height="13.22"/><rect class="cls-2" x="99.7" y="31.7" width="8.18" height="4.59"/><rect class="cls-2" x="344.47" width="9.35" height="68.16" rx="0.81"/><rect class="cls-2" x="329.63" width="12.41" height="68.16" rx="0.63"/><rect class="cls-2" x="314.8" width="12.41" height="68.16" rx="0.67"/><rect class="cls-2" x="356.25" y="29.49" width="31.21" height="9.35"/><rect class="cls-2" x="306.3" y="27.56" width="6.07" height="13.22"/><rect class="cls-2" x="298.12" y="31.7" width="8.18" height="4.59"/><rect class="cls-2" x="95.91" y="31.04" width="214.19" height="5.97"/><path class="cls-1" d="M196.32,7.34a81.51,81.51,0,0,1-8.52,3.84V32.3h-6V6.43l2.5-.42c2.51-.41,9.18-3.9,9.19-3.91Z"/><rect class="cls-2" x="184.81" y="13.07" width="8.34" height="5.97"/><rect class="cls-2" x="184.81" y="21.92" width="8.34" height="5.97"/><path class="cls-1" d="M214.59,2.1s6.69,3.5,9.19,3.91l2.51.42V32.3h-6V11.18a82.12,82.12,0,0,1-8.53-3.84Z"/><rect class="cls-2" x="214.96" y="13.07" width="8.34" height="5.97"/><rect class="cls-2" x="214.96" y="21.92" width="8.34" height="5.97"/><polygon class="cls-1" points="202.93 3.21 202.93 14.72 213.11 14.72 213.11 32.59 207.14 32.59 207.14 20.69 196.96 20.69 196.96 3.21 202.93 3.21"/><rect class="cls-2" x="199.94" y="6.65" width="10.63" height="5.97"/><rect class="cls-2" x="196.96" y="22.86" width="5.97" height="9.73"/><rect class="cls-2" x="190.44" y="42.84" width="25.64" height="5.97"/><rect class="cls-2" x="182.07" y="51.43" width="41.86" height="5.97"/><rect class="cls-2" x="200.01" y="34.02" width="5.97" height="120.1"/><polygon class="cls-1" points="218.41 32.46 237.61 56.66 232.94 60.37 213.75 36.17 218.41 32.46"/><polygon class="cls-1" points="194 36.17 174.8 60.37 170.14 56.66 189.33 32.46 194 36.17"/><path class="cls-1" d="M1.46,193.86v-23H4.1v9.49H14.4v-9.49h2.65v23H14.4V183H4.1v10.85Zm19.38-11.22q0-5.73,2.67-9a8.5,8.5,0,0,1,6.88-3.24,8.64,8.64,0,0,1,5,1.52,9.57,9.57,0,0,1,3.37,4.25,15.46,15.46,0,0,1,1.17,6.17,15.25,15.25,0,0,1-1.23,6.27,9.14,9.14,0,0,1-3.46,4.18,8.9,8.9,0,0,1-4.85,1.42,8.46,8.46,0,0,1-5-1.57A9.73,9.73,0,0,1,22,188.39a14.68,14.68,0,0,1-1.14-5.75Zm2.73.06a10.14,10.14,0,0,0,1.93,6.55,6.15,6.15,0,0,0,9.76,0q1.92-2.41,1.92-6.85a13.31,13.31,0,0,0-.82-4.9A7.09,7.09,0,0,0,34,174.22a5.93,5.93,0,0,0-3.55-1.15,6.28,6.28,0,0,0-4.81,2.22q-2,2.22-2,7.41Zm19.9,11.16v-23h2.71L56.64,188.9V170.82h2.53v23H56.46L46,175.77v18.09Zm29.65-9v-2.71h8.44v8.54a14.62,14.62,0,0,1-4,2.69,10.56,10.56,0,0,1-4.24.9A10.1,10.1,0,0,1,68,192.79a9.11,9.11,0,0,1-3.62-4.2,15,15,0,0,1-1.22-6.14,16,16,0,0,1,1.22-6.28,8.87,8.87,0,0,1,3.49-4.32,9.73,9.73,0,0,1,5.26-1.42,9.18,9.18,0,0,1,3.91.81,6.64,6.64,0,0,1,2.74,2.25,10.81,10.81,0,0,1,1.5,3.78l-2.38.75a9.47,9.47,0,0,0-1.11-2.77,4.67,4.67,0,0,0-1.9-1.61,6.19,6.19,0,0,0-2.74-.6,7,7,0,0,0-3.12.64,5.86,5.86,0,0,0-2.13,1.67,8.46,8.46,0,0,0-1.25,2.28,13.79,13.79,0,0,0-.76,4.65,12.87,12.87,0,0,0,.91,5.17,6.4,6.4,0,0,0,2.67,3.08,7.38,7.38,0,0,0,3.72,1,7.8,7.8,0,0,0,3.34-.77A8.26,8.26,0,0,0,79,189.13v-4.31Z"/><path class="cls-1" d="M91.72,193.86v-23h2.65v11.42l9.9-11.42h3.57l-8.36,9.34,8.72,13.7h-3.48l-7.09-11.63-3.26,3.65v8Zm18.07-11.22q0-5.73,2.67-9a8.5,8.5,0,0,1,6.88-3.24,8.64,8.64,0,0,1,5,1.52,9.57,9.57,0,0,1,3.37,4.25,15.46,15.46,0,0,1,1.17,6.17,15.25,15.25,0,0,1-1.23,6.27,9.14,9.14,0,0,1-3.46,4.18,8.88,8.88,0,0,1-4.85,1.42,8.48,8.48,0,0,1-5-1.57,9.73,9.73,0,0,1-3.36-4.28,14.68,14.68,0,0,1-1.14-5.75Zm2.73.06a10.14,10.14,0,0,0,1.93,6.55,6.15,6.15,0,0,0,9.76,0q1.92-2.41,1.92-6.85a13.31,13.31,0,0,0-.82-4.9,7.14,7.14,0,0,0-2.4-3.25,6,6,0,0,0-3.56-1.15,6.28,6.28,0,0,0-4.81,2.22q-2,2.22-2,7.41Zm19.9,11.16v-23h2.71l10.46,18.08V170.82h2.53v23h-2.71L135,175.77v18.09Zm29.65-9v-2.71h8.44v8.54a14.62,14.62,0,0,1-4,2.69,10.52,10.52,0,0,1-4.24.9,10.1,10.1,0,0,1-5.34-1.45,9,9,0,0,1-3.61-4.2,14.86,14.86,0,0,1-1.23-6.14,16,16,0,0,1,1.22-6.28,8.87,8.87,0,0,1,3.49-4.32,9.75,9.75,0,0,1,5.26-1.42,9.18,9.18,0,0,1,3.91.81,6.58,6.58,0,0,1,2.74,2.25,11,11,0,0,1,1.51,3.78l-2.38.75a9.74,9.74,0,0,0-1.12-2.77,4.67,4.67,0,0,0-1.9-1.61,6.16,6.16,0,0,0-2.74-.6,7,7,0,0,0-3.12.64,5.94,5.94,0,0,0-2.13,1.67,8.46,8.46,0,0,0-1.25,2.28,13.79,13.79,0,0,0-.76,4.65,13,13,0,0,0,.91,5.17,6.5,6.5,0,0,0,2.67,3.08,7.38,7.38,0,0,0,3.72,1,7.8,7.8,0,0,0,3.34-.77,8.13,8.13,0,0,0,2.47-1.64v-4.31Z"/><path class="cls-1" d="M184.22,193.86l-5.24-23h2.73l3,15.11c.33,1.58.61,3.15.86,4.7.52-2.45.83-3.87.92-4.24l3.76-15.57h3.18l2.86,11.66a77.87,77.87,0,0,1,1.55,8.15q.4-2.17,1-5L202,170.82h2.65l-5.45,23h-2.57l-4.18-17.56c-.35-1.47-.57-2.37-.64-2.7-.23,1.05-.44,2-.61,2.7L187,193.86Zm23.09,0v-23H221.7v2.7H210v7.08h11v2.7H210v7.85h12.21v2.71Zm19.16,0v-23h2.64v23Zm16.81-9v-2.71h8.43v8.54a14.47,14.47,0,0,1-4,2.69,10.49,10.49,0,0,1-4.24.9,10.09,10.09,0,0,1-5.33-1.45,9,9,0,0,1-3.62-4.2,14.86,14.86,0,0,1-1.22-6.14,16.19,16.19,0,0,1,1.21-6.28,8.88,8.88,0,0,1,3.5-4.32,9.7,9.7,0,0,1,5.26-1.42,9.21,9.21,0,0,1,3.91.81,6.61,6.61,0,0,1,2.73,2.25,10.62,10.62,0,0,1,1.51,3.78L249,178a9.47,9.47,0,0,0-1.11-2.77,4.8,4.8,0,0,0-1.9-1.61,6.23,6.23,0,0,0-2.75-.6,7,7,0,0,0-3.12.64,5.82,5.82,0,0,0-2.12,1.67,8.49,8.49,0,0,0-1.26,2.28,14,14,0,0,0-.76,4.65,12.86,12.86,0,0,0,.92,5.17,6.4,6.4,0,0,0,2.67,3.08,7.32,7.32,0,0,0,3.72,1,7.8,7.8,0,0,0,3.34-.77,8.2,8.2,0,0,0,2.46-1.64v-4.31Zm12.64,9v-23h2.64v9.49h10.3v-9.49h2.64v23h-2.64V183h-10.3v10.85Zm25.25,0V173.52H274.6v-2.7h15.78v2.7h-6.57v20.34Zm12,0v-23h2.65v20.33h9.8v2.71Zm16.24,0v-23h2.65v23Zm7.63,0v-23H330.5v2.7H319.7v7.18h9.35v2.7H319.7v10.46Zm22.13,0V173.52h-6.57v-2.7H348.4v2.7h-6.57v20.34Zm12.19,0v-23h14.39v2.7H354v7.08h11v2.7H354v7.85h12.22v2.71Zm18.76,0v-23H379a10.41,10.41,0,0,1,4,.62,4.64,4.64,0,0,1,2.21,2.19,7.31,7.31,0,0,1,.82,3.47,6.35,6.35,0,0,1-1.37,4.13,6.56,6.56,0,0,1-4.23,2.14,6.89,6.89,0,0,1,1.59,1.14,15.22,15.22,0,0,1,2.18,3.07l3.44,6.28h-3.29l-2.63-4.8c-.77-1.39-1.41-2.44-1.9-3.18a6.86,6.86,0,0,0-1.34-1.54,3.89,3.89,0,0,0-1.2-.61,7.13,7.13,0,0,0-1.47-.11h-3v10.24ZM372.79,181h5.66a7.36,7.36,0,0,0,2.82-.44,3,3,0,0,0,1.54-1.38,4.22,4.22,0,0,0,.53-2.07,3.71,3.71,0,0,0-1-2.69,4.36,4.36,0,0,0-3.23-1h-6.3V181Zm16.74,5.47,2.47-.26a7.11,7.11,0,0,0,.82,2.85,4.68,4.68,0,0,0,2,1.8,6.61,6.61,0,0,0,3.05.69,6.39,6.39,0,0,0,2.67-.52,3.77,3.77,0,0,0,1.71-1.43,3.68,3.68,0,0,0,.57-2,3.32,3.32,0,0,0-.54-1.88,4.1,4.1,0,0,0-1.8-1.36,31.4,31.4,0,0,0-3.55-1.12,16.43,16.43,0,0,1-3.84-1.44,5.74,5.74,0,0,1-2.12-2.15,5.84,5.84,0,0,1-.7-2.87,6.48,6.48,0,0,1,.85-3.26,5.52,5.52,0,0,1,2.51-2.31,8.24,8.24,0,0,1,3.65-.79,8.68,8.68,0,0,1,3.91.83,5.82,5.82,0,0,1,2.6,2.43,7.76,7.76,0,0,1,1,3.63l-2.54.22a5,5,0,0,0-1.37-3.29,4.87,4.87,0,0,0-3.48-1.12,5,5,0,0,0-3.49,1,3.23,3.23,0,0,0-1.09,2.44,2.86,2.86,0,0,0,.77,2c.51.53,1.84,1.08,4,1.64a23.7,23.7,0,0,1,4.41,1.47,6.25,6.25,0,0,1,2.57,2.34,6.38,6.38,0,0,1,.82,3.27,6.94,6.94,0,0,1-.91,3.46,6.22,6.22,0,0,1-2.61,2.52,8.09,8.09,0,0,1-3.84.9,10.06,10.06,0,0,1-4.52-.91,6.57,6.57,0,0,1-2.86-2.74A8.47,8.47,0,0,1,389.53,186.46Z"/></g></g></svg>